<?xml version="1.0"?>
<svg version="1.1" xmlns="http://www.w3.org/2000/svg" width="180" height="180" ><path fill="#b81f3e" d="M49.169921875,148.193359375q0-14.833984375,1.3330078125-29.7021484375t5.5712890625-29.2919921875q1.23046875-4.306640625,3.212890625-8.5107421875t4.853515625-7.4853515625t6.8359375-5.33203125t9.43359375-2.05078125l1.435546875,0.13671875q5.87890625,0.8203125,8.681640625,4.7509765625t2.802734375,9.8095703125q0,1.572265625-0.3759765625,3.9306640625t-1.1962890625,4.5458984375t-2.2216796875,3.7255859375t-3.5205078125,1.5380859375q-0.95703125-0.13671875-1.7431640625-0.341796875t-1.4697265625-0.888671875q1.09375-2.392578125,1.9482421875-4.990234375t0.8544921875-5.947265625q0-1.23046875-0.205078125-3.14453125t-0.7861328125-3.7939453125t-1.5380859375-3.28125t-2.666015625-1.4013671875q-4.306640625,0-7.24609375,4.8193359375t-4.921875,12.3046875t-2.939453125,16.54296875t-1.4697265625,17.5t-0.5810546875,15.244140625t-0.068359375,9.6044921875q0,3.28125-0.068359375,7.24609375l0,0.888671875q0.068359375,3.486328125,0.478515625,6.630859375q0.546875,3.5546875,2.119140625,6.15234375t4.921875,3.0078125q1.025390625,0.13671875,1.982421875,0.13671875q3.96484375,0,7.177734375-2.255859375q3.96484375-2.802734375,7.041015625-7.2802734375t5.46875-9.84375t4.4091796875-10.1513671875t3.9306640625-7.9296875t3.96484375-3.14453125q0.68359375,0,2.05078125,0.2734375t1.3671875,1.298828125q0,0.2734375-0.13671875,0.751953125t-0.341796875,0.751953125q-1.845703125,7.24609375-4.6826171875,15.0390625t-7.24609375,14.1845703125t-10.80078125,10.4248046875t-15.3466796875,4.033203125q-6.42578125,0-10.4248046875-2.4267578125t-6.15234375-6.494140625t-2.939453125-9.1943359375t-0.7861328125-10.390625z"/><path fill="#" d="M109.4892578125,122.36328125q0.048828125-1.025390625,0.048828125-2.001953125q0-3.5400390625,0.25634765625-7.0556640625t0.35400390625-7.0556640625q0.146484375-4.052734375,0.2685546875-8.0322265625t0.48828125-8.0078125q0.09765625-1.0009765625,0.57373046875-1.30615234375t1.42822265625-0.30517578125q0.439453125,0,1.171875,0.1708984375t0.732421875,0.830078125q0.341796875,0.048828125,0.68359375,0.048828125q0.5126953125,0,1.0498046875-0.09765625q0.87890625-0.146484375,1.79443359375-0.32958984375t1.81884765625-0.35400390625t1.7333984375-0.1708984375q0.1953125,0,0.54931640625,0.0244140625t0.7080078125,0.146484375t0.59814453125,0.30517578125t0.244140625,0.47607421875t-0.57373046875,0.52490234375t-1.50146484375,0.40283203125t-2.001953125,0.29296875t-2.099609375,0.20751953125t-1.81884765625,0.13427734375t-1.13525390625,0.048828125l-0.048828125,9.1796875l0.048828125,4.5654296875q0.7568359375,0,2.2705078125-0.048828125q0.6103515625-0.0244140625,1.220703125-0.0244140625q0.927734375,0,1.904296875,0.048828125q1.611328125,0.0732421875,2.9052734375,0.29296875t1.6357421875,0.78125q0,0.341796875-0.35400390625,0.54931640625t-0.79345703125,0.30517578125t-0.89111328125,0.1220703125t-0.64697265625,0.0244140625q-1.806640625,0-3.6376953125-0.0732421875t-3.61328125-0.29296875q0,3.0029296875-0.15869140625,5.95703125t-0.15869140625,5.95703125q0,1.2939453125,0.0244140625,2.55126953125t0.29296875,2.50244140625q0.6591796875-0.048828125,1.42822265625-0.1220703125t1.5625-0.18310546875t1.52587890625-0.18310546875t1.26953125-0.0732421875q0.29296875,0,0.79345703125,0.0732421875t1.025390625,0.244140625t0.9033203125,0.42724609375t0.37841796875,0.59814453125q0,0.390625-0.72021484375,0.69580078125t-1.84326171875,0.48828125t-2.45361328125,0.25634765625t-2.57568359375,0.09765625t-2.24609375,0.0244140625l-1.416015625,0q-1.3427734375,0-1.96533203125-0.50048828125t-0.86669921875-1.30615234375q-0.1953125-0.6591796875-0.1708984375-1.4892578125l0-0.341796875z M129.79370117188,115.6005859375q0-1.904296875,0.40283203125-3.45458984375t1.28173828125-2.62451171875t2.30712890625-1.67236328125t3.47900390625-0.59814453125q1.1474609375,0,2.34375,0.30517578125t2.05078125,1.13525390625q0-0.48828125,0.09765625-2.01416015625t0.244140625-3.55224609375t0.30517578125-4.248046875t0.28076171875-4.1259765625t0.2197265625-3.1982421875t0.146484375-1.46484375q0.244140625-0.7080078125,0.9033203125-0.84228515625t1.2451171875-0.13427734375q1.5380859375,0,1.89208984375,0.48828125t0.35400390625,1.953125q0,5.3466796875-0.47607421875,10.64453125t-0.47607421875,10.64453125q0,3.4423828125,0.13427734375,6.92138671875t0.96435546875,6.84814453125l0.2685546875,0.244140625l0.146484375,0.439453125l-0.3662109375,0.5615234375q-0.927734375,0.5859375-2.1484375,0.5859375l-0.09765625,0q-1.2451171875,0-2.294921875-0.5859375q-0.390625-0.244140625-0.64697265625-1.45263671875t-0.40283203125-2.6611328125t-0.2197265625-2.79541015625t-0.1220703125-1.904296875q-0.8544921875,1.953125-2.33154296875,3.35693359375t-3.72314453125,1.40380859375q-1.7578125,0-2.880859375-0.7568359375t-1.74560546875-1.9287109375t-0.87890625-2.62451171875t-0.25634765625-2.89306640625z M132.74780273438,115.7470703125q0,0.5615234375,0.13427734375,1.66015625t0.42724609375,2.197265625t0.81787109375,1.953125t1.37939453125,0.8544921875q1.1474609375-0.5615234375,2.0751953125-1.86767578125t1.59912109375-2.880859375t1.0498046875-3.1494140625t0.37841796875-2.72216796875q0-1.4404296875-1.0498046875-2.392578125t-2.5146484375-0.9521484375q-0.439453125,0-0.89111328125,0.1708984375t-0.84228515625,0.390625q-0.9033203125,0.8544921875-1.40380859375,1.55029296875t-0.7568359375,1.4404296875t-0.32958984375,1.64794921875t-0.0732421875,2.099609375z M153.41845703125,123.6083984375q0-0.6103515625,0.0732421875-1.23291015625t0.0732421875-1.23291015625l0-0.390625q0-0.7568359375,0.62255859375-0.9521484375t1.28173828125-0.1953125q0.7568359375,0,1.45263671875,0.3173828125t0.69580078125,1.220703125q0.146484375,0.439453125,0.146484375,1.0498046875l0,1.1474609375q0,0.8544921875-0.59814453125,1.18408203125t-1.59912109375,0.32958984375q-0.7080078125,0-1.42822265625-0.25634765625t-0.72021484375-0.98876953125z"/></svg>
